<svg width="15" height="14" viewBox="0 0 15 14" fill="none" xmlns="http://www.w3.org/2000/svg">
    <path
        d="M7.00792 0C7.92714 0 8.83735 0.181052 9.68659 0.53282C10.5358 0.884587 11.3075 1.40018 11.9575 2.05016C13.2701 3.36286 14.0076 5.14326 14.0076 6.99969C14.0137 8.61601 13.4541 10.1835 12.4257 11.4305L13.8256 12.8304C13.9227 12.9289 13.9885 13.0539 14.0147 13.1896C14.0409 13.3254 14.0262 13.4659 13.9726 13.5934C13.9145 13.7193 13.8202 13.8252 13.7018 13.8975C13.5834 13.9697 13.4462 14.0052 13.3076 13.9994H7.00792C5.15149 13.9994 3.37109 13.2619 2.0584 11.9492C0.745699 10.6365 0.00823407 8.85612 0.00823407 6.99969C0.00823407 5.14326 0.745699 3.36286 2.0584 2.05016C3.37109 0.737465 5.15149 0 7.00792 0Z"
        fill="#67D27F"/>
</svg>
