<svg width="24" height="14" viewBox="0 0 24 14" fill="none" xmlns="http://www.w3.org/2000/svg">
    <path
        d="M24 6.99699C23.998 6.73752 23.8954 6.48897 23.714 6.30378L23.708 6.29176L17.708 0.281204C17.5194 0.0987258 17.2668 -0.00224582 17.0046 3.66088e-05C16.7424 0.00231903 16.4916 0.107674 16.3062 0.293408C16.1208 0.479142 16.0156 0.730396 16.0133 0.993054C16.011 1.25571 16.1118 1.50876 16.294 1.69769L20.586 5.99924L1 5.99924C0.734784 5.99924 0.480429 6.10479 0.292892 6.29265C0.105356 6.48052 0 6.73532 0 7.001C0 7.26668 0.105356 7.52149 0.292892 7.70935C0.480429 7.89722 0.734784 8.00276 1 8.00276L20.586 8.00276L16.294 12.3023C16.1118 12.4912 16.011 12.7443 16.0133 13.0069C16.0156 13.2696 16.1208 13.5209 16.3062 13.7066C16.4916 13.8923 16.7424 13.9977 17.0046 14C17.2668 14.0022 17.5194 13.9013 17.708 13.7188L23.708 7.70824L23.714 7.69823C23.803 7.60787 23.8737 7.50103 23.922 7.38367C23.9735 7.26269 24 7.13252 24 7.001V6.99699Z"
        fill="#0662BA"/>
</svg>
