<svg width="16" height="14" viewBox="0 0 16 14" fill="none" xmlns="http://www.w3.org/2000/svg">
    <path fill-rule="evenodd" clip-rule="evenodd"
          d="M15.3219 0.208748C15.4474 0.387415 15.4193 0.621338 15.2544 0.771211L6.82159 8.43747C6.66729 8.57769 6.43047 8.61003 6.23772 8.51725L0.264418 5.64244C0.0909589 5.55895 -0.0121964 5.39046 0.00115663 5.21247C0.0145096 5.03444 0.141868 4.88026 0.326188 4.81896L14.7323 0.0275475C14.9513 -0.0452762 15.1965 0.0300836 15.3219 0.208748ZM1.71597 5.31877L6.37834 7.56268L12.9605 1.57889L1.71597 5.31877Z"
          fill="white"/>
    <path fill-rule="evenodd" clip-rule="evenodd"
          d="M15.1704 0.0710785C15.3669 0.185112 15.4498 0.408026 15.3697 0.607075L10.0992 13.7036C10.0317 13.8711 9.86213 13.9869 9.6663 13.999C9.47052 14.0112 9.28517 13.9174 9.19334 13.7597L6.031 8.32945C5.92893 8.15418 5.96456 7.93893 6.1188 7.79866L14.5517 0.132442C14.7166 -0.0174327 14.9739 -0.0429532 15.1704 0.0710785ZM13.6633 2.21782L7.08107 8.20161L9.54937 12.4401L13.6633 2.21782Z"
          fill="white"/>
</svg>
