<svg width="18" height="12" viewBox="0 0 18 12" fill="none" xmlns="http://www.w3.org/2000/svg">
    <path
        d="M8.57143 0C4.67532 0 1.34805 2.488 0 6C1.34805 9.512 4.67532 12 8.57143 12C12.4714 12 15.7948 9.512 17.1429 6C15.7948 2.488 12.4714 0 8.57143 0ZM8.57143 10C6.42078 10 4.67532 8.208 4.67532 6C4.67532 3.792 6.42078 2 8.57143 2C10.7221 2 12.4675 3.792 12.4675 6C12.4675 8.208 10.7221 10 8.57143 10ZM8.57143 3.6C7.28182 3.6 6.23377 4.676 6.23377 6C6.23377 7.324 7.28182 8.4 8.57143 8.4C9.86104 8.4 10.9091 7.324 10.9091 6C10.9091 4.676 9.86104 3.6 8.57143 3.6Z"
        fill="white"/>
</svg>
